<svg xmlns="http://www.w3.org/2000/svg" width="36" height="48.028" viewBox="0 0 36 48.028">
  <circle cx="18" cy="17.832" r="11.609" style="fill: #fff;opacity: 0.65"/>
  <path d="M18-.028A17.845,17.845,0,0,0,.606,17.254C.606,29.965,17.554,47.805,18,47.916c.223.112,17.394-18.062,17.394-30.662A17.322,17.322,0,0,0,18-.028Zm-.111,29.436A11.54,11.54,0,0,1,6.4,17.923,11.807,11.807,0,0,1,17.889,6.216,11.613,11.613,0,0,1,29.373,17.7h0A11.449,11.449,0,0,1,17.889,29.408Z" transform="translate(0 0.028)" style="fill: #FFDB56"/>
</svg>
