<?xml version="1.0" encoding="UTF-8"?>
<svg xmlns="http://www.w3.org/2000/svg" viewBox="0 0 158.334 32.1856">
  <g>
    <path d="m5.0595.1864c.6308,2.689-.0664,7.8347-.7635,11.088l-1.5603-1.0955C1.2086,16.1545-.2853,20.271.0467,22.8937c.4316,3.1206,2.357,5.71,5.0129,7.3699,1.0623.5976.9627.6308,3.0874,1.3943,2.3902.664,4.7805.7303,7.2039.0332.0332,0,1.6267-.5644,2.9546-1.4607l.2988-.1992c1.5935-1.1951,2.9878-2.9546,3.9173-5.3116C25.111,16.4201,18.405,7.2575,5.0595.1864Z"  style="fill: var(--primary)"/>
    <path d="m12.3595,31.9359c-1.1977,0-2.4127-.1698-3.6367-.5095l-.146-.0469c-1.5733-.5653-1.8596-.7149-2.5284-1.1022l-.4254-.245c-2.8219-1.7646-4.6827-4.5254-5.1044-7.575-.2604-2.0565.4153-4.506,1.3505-7.8956.2868-1.0389.5985-2.1687.9121-3.3945.0057-.0221.0091-.0446.0097-.0674.0073-.3018.0846-2.6288.7417-2.8718.3061-.1132,1.0683.7501,1.0683.7501.2669-2.0516.3591-4.0475.1039-5.1356l-.7137-3.0424c-.1275-.5434.444-.9841.9372-.7228l2.7614,1.4632c12.1271,6.4258,17.9092,14.9349,15.4674,22.7613l-.0505.1431c-.86,2.1818-2.2178,4.0127-3.927,5.2953l-.3417.2313c-.5354.3615-2.0161,1.1855-3.0265,1.4637l.004.0129c-1.1301.3251-2.2845.4876-3.4559.4876Zm-2.4568-4.4793c1.6558.4475,3.2059.4544,4.7352.0224.0093-.0026.0157-.0046.0248-.0079.2606-.0943,1.1606-.4601,1.8687-.938l.2058-.1375c1.0524-.8032,1.9075-1.9669,2.4792-3.3735.0066-.0162.0125-.0331.0175-.0499,1.4949-5.0126-2.1361-10.6986-9.8288-15.6437-.2019-.1298-.4734.0049-.4921.2442-.1907,2.4437-.6584,4.7486-.8009,5.4129l-.5549,2.5897c-.0475.2216-.3057.3228-.4911.1926,0,0-.4649-.4416-.6669-.4682-.245-.0323-.3605-.0238-.4878.178-.7674,2.7831-1.4452,5.198-1.2884,6.4354.2527,1.8244,1.3768,3.4612,3.164,4.5885l.3364.1933c.4411.2555.5527.3194,1.7791.7618Z" style="fill: var(--primary)"/>
  </g>
  <g>
    <path d="m43.5058,31.9359h-5.4834c-.3673,0-.6651-.2978-.6651-.6651V10.4683h-7.4931c-.3673,0-.6651-.2978-.6651-.6651v-4.978c0-.3673.2978-.6651.6651-.6651h21.7708c.3673,0,.6651.2978.6651.6651v4.9527c0,.3673-.2978.6651-.6651.6651h-7.4641v20.8278c0,.3673-.2978.6651-.6651.6651Z" style="fill: currentColor"/>
    <path d="m58.6098,31.9275h-6.0428c-.18,0-.3259-.1458-.3261-.3258v-.0032c-.0008-3.6356-.0037-7.2713.0006-10.9069.0026-2.1972.4276-4.2932,1.5643-6.2032,1.421-2.3878,3.5346-3.8936,6.1389-4.7543,1.6245-.5369,3.3009-.7629,5.007-.723.5041.0118,1.0079.1344,1.5051.2387.0768.0161.1662.2069.1668.3174.0101,1.9729.0075,3.946.0067,5.919v.0026c-.0004.1604-.1466.2812-.3049.2557-.3026-.0488-.5973-.1-.8941-.1202-1.4338-.0977-2.8356.0251-4.1283.725-1.4.7581-2.0473,1.9995-2.2096,3.5334-.0372.3518-.0405.7083-.0408,1.0627-.0028,3.5137-.0017,7.0274-.0017,10.5411h0c0,.2436-.1975.441-.441.441h0Z" style="fill: currentColor"/>
    <path d="m79.8432,8.9976c2.5629.0302,5.1401.6579,7.3988,2.3097,2.3415,1.7123,3.7056,4.0437,4.2205,6.8724.4185,2.2988.2869,4.5759-.5478,6.7722-1.2268,3.2277-3.5325,5.3821-6.7872,6.4568-3.6488,1.2047-7.2642,1.046-10.7017-.7407-3.1922-1.6592-5.0194-4.3715-5.6171-7.8978-.4119-2.4304-.2121-4.8204.7744-7.1003,1.3804-3.1901,3.8419-5.1511,7.1306-6.1301,1.2823-.3817,2.6002-.5348,4.1294-.5421h.0001Zm5.0313,11.3943c-.0265-.2521-.046-.6858-.121-1.1097-.3039-1.7181-1.203-2.9807-2.8739-3.6038-1.0702-.3991-2.1867-.4574-3.3075-.2868-1.9288.2936-3.2812,1.3007-3.8668,3.2179-.31,1.015-.3452,2.0525-.186,3.0907.2975,1.9407,1.3086,3.3125,3.2488,3.8748,1.3061.3785,2.6214.3625,3.9191-.0451.8652-.2718,1.6394-.7713,2.174-1.5039.7777-1.0659.9848-2.1945,1.0133-3.634h0Z" style="fill: currentColor"/>
    <rect x="105.9188" y=".1855" width="6.7592" height="31.7384" rx=".6651" ry=".6651" style="fill: currentColor"/>
    <rect x="94.6802" y=".1864" width="6.7565" height="31.7479" rx=".65" ry=".65" style="fill: currentColor"/>
    <path d="m123.1478,4.1538h6.0086c.2325,0,.4211.1885.4212.421v.0043c.0027,5.4527-.0154,10.9055.0207,16.358.0109,1.6355.6051,3.0547,2.0132,4.0256.7383.5091,1.5737.7545,2.4567.8339,1.1979.1078,2.3733.008,3.4654-.5428,1.5273-.7702,2.2152-2.1034,2.4164-3.7341.0554-.4493.065-.9065.0653-1.3602.0043-5.1978.0027-10.3956.0027-15.5934h0c0-.2235.1812-.4047.4047-.4047h6.1237c.1491,0,.27.1208.27.2699v.0026c-.0015,5.5303.0387,11.061-.0215,16.5907-.0357,3.2806-1.203,6.1253-3.7341,8.3135-1.6343,1.4128-3.5592,2.2251-5.6722,2.5824-2.6745.4523-5.3092.2907-7.8294-.7712-3.6519-1.5387-5.815-4.2826-6.5557-8.112-.1431-.74-.2329-1.9703-.235-2.724-.0147-5.2563-.0076-10.5126-.0076-15.7689v-.0036c0-.2137.1732-.3869.3869-.3869h0Z" style="fill: var(--primary)"/>
    <rect x="151.5679" y="4.154" width="6.7661" height="27.771" rx=".6651" ry=".6651" style="fill: var(--primary)"/>
  </g>
</svg>