<svg xmlns="http://www.w3.org/2000/svg" viewBox="0 0 159.1222 31.9991">
  <g>
    <path d="m4.8142,12.3071c1.1341,1.1641,2.7231,1.2852,3.8842.1416.6899-.6796,1.2624-1.5406,1.6393-2.4157,1.1961-2.7776,1.7582-5.7121,2.126-8.6805.0254-.2047.0498-.4095.0737-.6143.0793-.6802,1.0084-.9095,1.4273-.3514.2094.2789.409.5605.6053.8442,3.313,4.7867,6.4495,9.6599,8.7686,14.974,1.5889,3.6409,1.5307,7.1536-.7684,10.4608-4.2174,6.0667-12.8975,7.1291-18.6386,2.3034C1.1602,26.6397-.2936,23.6275.0496,20.1379c.2826-2.8737,1.7735-5.389,3.1558-7.9884.2486-.4676.9137-.5574,1.2883-.1721l.3205.3297Zm5.439,3.6918c-1.1246,1.9329-2.3134,3.8485-3.2271,5.8716-1.1506,2.5476-.278,5.1105,1.8386,6.5185,4.4974,2.9917,10.3759-1.3228,8.6313-6.2533-.3819-1.0793-.9062-2.1297-1.4677-3.1324-.9812-1.7523-2.1508-3.4105-3.2482-5.104-.089-.1373-.1972-.2633-.3268-.4114-.1353-.1546-.3909-.1429-.5085.0241-.6091.8647-1.2036,1.6481-1.6916,2.4869Z" style="fill: var(--primary)"/>
  </g>
  <g>
    <path d="m43.5058,31.9359h-5.4834c-.3673,0-.6651-.2978-.6651-.6651V10.4683h-7.4931c-.3673,0-.6651-.2978-.6651-.6651v-4.978c0-.3673.2978-.6651.6651-.6651h21.7708c.3673,0,.6651.2978.6651.6651v4.9527c0,.3673-.2978.6651-.6651.6651h-7.4641v20.8278c0,.3673-.2978.6651-.6651.6651Z" style="fill: currentColor"/>
    <path d="m58.6098,31.9275h-6.0428c-.18,0-.3259-.1458-.3261-.3258v-.0032c-.0008-3.6356-.0037-7.2713.0006-10.9069.0026-2.1972.4276-4.2932,1.5643-6.2032,1.421-2.3878,3.5346-3.8936,6.1389-4.7543,1.6245-.5369,3.3009-.7629,5.007-.723.5041.0118,1.0079.1344,1.5051.2387.0768.0161.1662.2069.1668.3174.0101,1.9729.0075,3.946.0067,5.919v.0026c-.0004.1604-.1466.2812-.3049.2557-.3026-.0488-.5973-.1-.8941-.1202-1.4338-.0977-2.8356.0251-4.1283.725-1.4.7581-2.0473,1.9995-2.2096,3.5334-.0372.3518-.0405.7083-.0408,1.0627-.0028,3.5137-.0017,7.0274-.0017,10.5411h0c0,.2436-.1975.441-.441.441h0Z" style="fill: currentColor"/>
    <path d="m79.8432,8.9976c2.5629.0302,5.1401.6579,7.3988,2.3097,2.3415,1.7123,3.7056,4.0437,4.2205,6.8724.4185,2.2988.2869,4.5759-.5478,6.7722-1.2268,3.2277-3.5325,5.3821-6.7872,6.4568-3.6488,1.2047-7.2642,1.046-10.7017-.7407-3.1922-1.6592-5.0194-4.3715-5.6171-7.8978-.4119-2.4304-.2121-4.8204.7744-7.1003,1.3804-3.1901,3.8419-5.1511,7.1306-6.1301,1.2823-.3817,2.6002-.5348,4.1294-.5421h.0001Zm5.0313,11.3943c-.0265-.2521-.046-.6858-.121-1.1097-.3039-1.7181-1.203-2.9807-2.8739-3.6038-1.0702-.3991-2.1867-.4574-3.3075-.2868-1.9288.2936-3.2812,1.3007-3.8668,3.2179-.31,1.015-.3452,2.0525-.186,3.0907.2975,1.9407,1.3086,3.3125,3.2488,3.8748,1.3061.3785,2.6214.3625,3.9191-.0451.8652-.2718,1.6394-.7713,2.174-1.5039.7777-1.0659.9848-2.1945,1.0133-3.634h0Z" style="fill: currentColor"/>
    <rect x="105.9188" y=".1855" width="6.7592" height="31.7384" rx=".6651" ry=".6651" style="fill: currentColor"/>
    <rect x="94.6802" y=".1864" width="6.7565" height="31.7479" rx=".65" ry=".65" style="fill: currentColor"/>
    <path d="m123.1478,4.1538h6.0086c.2325,0,.4211.1885.4212.421v.0043c.0027,5.4527-.0154,10.9055.0207,16.358.0109,1.6355.6051,3.0547,2.0132,4.0256.7383.5091,1.5737.7545,2.4567.8339,1.1979.1078,2.3733.008,3.4654-.5428,1.5273-.7702,2.2152-2.1034,2.4164-3.7341.0554-.4493.065-.9065.0653-1.3602.0043-5.1978.0027-10.3956.0027-15.5934h0c0-.2235.1812-.4047.4047-.4047h6.1237c.1491,0,.27.1208.27.2699v.0026c-.0015,5.5303.0387,11.061-.0215,16.5907-.0357,3.2806-1.203,6.1253-3.7341,8.3135-1.6343,1.4128-3.5592,2.2251-5.6722,2.5824-2.6745.4523-5.3092.2907-7.8294-.7712-3.6519-1.5387-5.815-4.2826-6.5557-8.112-.1431-.74-.2329-1.9703-.235-2.724-.0147-5.2563-.0076-10.5126-.0076-15.7689v-.0036c0-.2137.1732-.3869.3869-.3869h0Z" style="fill: var(--primary)"/>
    <rect x="151.5679" y="4.154" width="6.7661" height="27.771" rx=".6651" ry=".6651" style="fill: var(--primary)"/>
  </g>
</svg>